# xmcd
# 
# Track frame offsets:
#     150
#     17987
#     29912
#     49787
# 
# Disc length: 794
# 
# Revision: 0
# Processed by: cddbd v1.5.2PL0 Copyright (c) Steve Scherf et al.
# Submitted via: fre:ac v1.0.17
# 
DISCID=33031804
DTITLE=Melys - Fragile
DYEAR=1996
DGENRE=Indie
TTITLE0=Let Yourself Scream
TTITLE1=Noeth
TTITLE2=Puppet
TTITLE3=Adeiladu Fi
EXTD=
EXTT0=
EXTT1=
EXTT2=
EXTT3=
PLAYORDER=
